<svg width="15" height="15" viewBox="0 0 15 15" fill="none" xmlns="http://www.w3.org/2000/svg">
<path d="M8.75 8.125C8.22917 8.125 7.78646 7.94271 7.42188 7.57812C7.05729 7.21354 6.875 6.77083 6.875 6.25C6.875 5.72917 7.05729 5.28646 7.42188 4.92187C7.78646 4.55729 8.22917 4.375 8.75 4.375C9.27083 4.375 9.71354 4.55729 10.0781 4.92187C10.4427 5.28646 10.625 5.72917 10.625 6.25C10.625 6.77083 10.4427 7.21354 10.0781 7.57812C9.71354 7.94271 9.27083 8.125 8.75 8.125ZM4.375 10C4.03125 10 3.73698 9.8776 3.49219 9.63281C3.2474 9.38802 3.125 9.09375 3.125 8.75V3.75C3.125 3.40625 3.2474 3.11198 3.49219 2.86719C3.73698 2.6224 4.03125 2.5 4.375 2.5H13.125C13.4688 2.5 13.763 2.6224 14.0078 2.86719C14.2526 3.11198 14.375 3.40625 14.375 3.75V8.75C14.375 9.09375 14.2526 9.38802 14.0078 9.63281C13.763 9.8776 13.4688 10 13.125 10H4.375ZM5.625 8.75H11.875C11.875 8.40625 11.9974 8.11198 12.2422 7.86719C12.487 7.6224 12.7813 7.5 13.125 7.5V5C12.7813 5 12.487 4.8776 12.2422 4.63281C11.9974 4.38802 11.875 4.09375 11.875 3.75H5.625C5.625 4.09375 5.50261 4.38802 5.25781 4.63281C5.01302 4.8776 4.71875 5 4.375 5V7.5C4.71875 7.5 5.01302 7.6224 5.25781 7.86719C5.50261 8.11198 5.625 8.40625 5.625 8.75ZM12.5 12.5H1.875C1.53125 12.5 1.23698 12.3776 0.992188 12.1328C0.747396 11.888 0.625 11.5937 0.625 11.25V4.375H1.875V11.25H12.5V12.5Z" fill="white"/>
</svg>
